OpenSim_Sub02_CSBaseline_GRF.mot
version=1
nRows=51
nColumns=19
inDegrees=no
endheader
time	lFx	lFy	lFz	lCOPx	lCOPy	lCOPz	rFx	rFy	rFz	rCOPx	rCOPy	rCOPz	lMx	lMy	lMz	rMx	rMy	rMz
35.28000000	-11.83912715	532.17834726	44.85908709	0.93719072	0	-0.60866594	0.09100019	-0.12768368	-0.09563596	-0.00004228	0	0.00002443	0	1.61179911	0	0	-0.00001999	0.00000000
35.29000000	-10.34882640	522.38532445	43.72534719	0.93187889	0	-0.60888902	0.09332616	-0.11848804	-0.06626940	-0.00002582	0	0.00001476	0	1.41909886	0	0	-0.00000842	-0.00000000
35.30000000	-9.18771479	513.36609840	42.63690062	0.92654137	0	-0.60906042	0.09659324	-0.07585016	-0.03319413	-0.00000968	0	0.00000547	0	1.24058876	0	0	-0.00000152	-0.00000000
35.31000000	-8.13115440	505.59107468	41.52063113	0.92117139	0	-0.60920915	0.09245074	-0.05127719	-0.04746677	-0.00000100	0	0.00000052	0	1.15697676	0	0	0.00000100	-0.00000000
35.32000000	-7.03684396	499.44525302	40.46113308	0.91579568	0	-0.60940484	0.08256304	-0.06396612	-0.02143598	0.00000175	0	-0.00000102	0	1.12926268	0	0	0.00000120	0.00000000
35.33000000	-5.84110747	494.92294532	39.41781762	0.91040173	0	-0.60960287	0.06830855	-0.03786883	0.00425789	0.00000167	0	-0.00000096	0	1.15527271	0	0	0.00000071	0.00000000
35.34000000	-4.58753694	491.79828563	38.43244917	0.90512882	0	-0.60972068	0.06270689	0.02896682	0.01187192	0.00000089	0	-0.00000051	0	1.19352780	0	0	0.00000026	-0.00000000
35.35000000	-3.23626170	489.89069626	37.56616545	0.89979666	0	-0.60977976	0.09039829	0.07229116	0.04678703	0.00000028	0	-0.00000016	0	1.19986562	0	0	0.00000002	-0.00000000
35.36000000	-1.70890358	489.04155758	36.78740232	0.89413798	0	-0.60984329	0.12252883	0.11800148	0.07331070	-0.00000001	0	0.00000001	0	1.19318711	0	0	-0.00000005	0.00000000
35.37000000	-0.00905382	489.09085082	36.18704414	0.88811375	0	-0.60988751	0.13711939	0.19214195	0.06575460	-0.00000010	0	0.00000005	0	1.17040522	0	0	-0.00000005	0.00000000
35.38000000	1.75892412	490.07157870	35.85761771	0.88189095	0	-0.60988614	0.12612527	0.17430510	0.06962291	-0.00000012	0	0.00000006	0	1.16178796	0	0	-0.00000003	-0.00000000
35.39000000	3.46936004	491.94120135	35.73731493	0.87565791	0	-0.60989663	0.10286929	0.14199959	0.06353675	-0.00000014	0	0.00000006	0	1.21551756	0	0	-0.00000004	0.00000000
35.40000000	5.18033078	494.50524097	35.75884508	0.86952386	0	-0.60994175	0.08940173	0.20105078	-0.01524907	-0.00000014	0	0.00000005	0	1.29318926	0	0	-0.00000006	0.00000000
35.41000000	6.95728619	497.59531607	35.87463165	0.86348419	0	-0.60999912	0.08638337	0.26256732	-0.05144801	0.00000002	0	-0.00000000	0	1.34395385	0	0	-0.00000006	-0.00000000
35.42000000	8.83212115	501.07707404	36.02646760	0.85767547	0	-0.61010764	0.07864246	0.28800985	-0.03914022	0.00000055	0	-0.00000018	0	1.36156092	0	0	0.00000005	-0.00000000
35.43000000	10.66312009	504.81968108	36.23984160	0.85206064	0	-0.61027702	0.06037110	0.24714186	-0.04190638	0.00000160	0	-0.00000056	0	1.34542807	0	0	0.00000037	0.00000000
35.44000000	12.43876480	508.71831976	36.62313758	0.84640951	0	-0.61045315	0.05632791	0.22452638	-0.00306655	0.00000284	0	-0.00000103	0	1.27250177	0	0	0.00000096	0.00000000
35.45000000	14.33747498	512.68975696	37.15400601	0.84066663	0	-0.61064521	0.06381884	0.20514272	0.04945802	0.00000260	0	-0.00000101	0	1.13809431	0	0	0.00000153	-0.00000000
35.46000000	16.52417761	516.74047182	37.77230631	0.83494018	0	-0.61092581	0.08479543	0.15900325	0.07759503	-0.00000279	0	0.00000081	0	0.91926284	0	0	0.00000104	0.00000000
35.47000000	18.90445133	520.97886940	38.41591919	0.82955091	0	-0.61134328	0.10741920	0.12515807	0.07154539	-0.00001840	0	0.00000629	0	0.65767275	0	0	-0.00000262	0.00000000
35.48000000	21.15494197	525.33261429	39.09893252	0.82451016	0	-0.61180802	0.01217709	0.25807312	0.00850874	-0.00004572	0	0.00001617	0	0.40133702	0	0	-0.00001197	-0.00000000
35.49000000	23.20784613	529.42486540	39.88758602	0.81962230	0	-0.61223293	-0.35870195	0.72870288	-0.05587822	-0.00007008	0	0.00002562	0	0.13292556	0	0	-0.00002667	-0.00000000
35.50000000	25.22179045	532.94582083	40.82190009	0.81469920	0	-0.61261951	-1.04137994	1.59121042	-0.14007301	-0.00004097	0	0.00001704	0	-0.13820360	0	0	-0.00003620	-0.00000000
35.51000000	27.34661074	535.80460571	41.90320644	0.80970688	0	-0.61299068	-1.68557428	2.44777984	-0.29049595	0.00014039	0	-0.00004503	0	-0.40831507	0	0	-0.00000958	0.00000000
35.52000000	29.55433661	538.15893890	43.15198586	0.80486430	0	-0.61336428	-1.80245018	2.75235801	-0.36778365	0.00058480	0	-0.00020235	0	-0.71401860	0	0	0.00010793	-0.00000000
35.53000000	31.79709280	540.32152779	44.50543782	0.80010981	0	-0.61369073	-1.36136858	2.41090810	-0.31008073	0.00125648	0	-0.00044820	0	-1.00034127	0	0	0.00036649	-0.00000000
35.54000000	34.11705504	542.34796941	45.83434780	0.79533322	0	-0.61394988	-0.69393945	1.70150430	-0.21532763	0.00162591	0	-0.00060371	0	-1.21490778	0	0	0.00071178	0.00000000
35.55000000	36.54479379	543.83173032	47.01400291	0.79047397	0	-0.61414740	-0.18213587	0.98855186	-0.12053127	0.00020902	0	-0.00014715	0	-1.37463842	0	0	0.00078755	-0.00000000
35.56000000	38.98419461	544.31288731	47.87796248	0.78574665	0	-0.61430164	-0.07082874	0.41662108	-0.02525592	-0.00552588	0	0.00183909	0	-1.49791651	0	0	-0.00029000	0.00000000
35.57000000	41.13542382	543.56418346	48.35179768	0.78124884	0	-0.61440367	-0.44924109	-0.16394196	0.03338465	-0.01769549	0	0.00618349	0	-1.58801004	0	0	-0.00387337	-0.00000000
35.58000000	42.88087498	541.42328003	48.37877728	0.77696565	0	-0.61446825	-1.23862200	-0.79985490	0.02606448	-0.03317461	0	0.01194083	0	-1.65826929	0	0	-0.01074843	0
35.59000000	44.32723678	537.68954532	47.89374672	0.77290416	0	-0.61452112	-1.97836070	-0.91803208	-0.13906214	-0.03437737	0	0.01307830	0	-1.68076881	0	0	-0.01819064	0.00000000
35.60000000	45.60648255	532.02059581	46.89501438	0.76904742	0	-0.61454553	-1.39209920	1.27224575	-0.79652124	0.02063851	0	-0.00527348	0	-1.62329011	0	0	-0.01488590	0.00000000
35.61000000	46.75176777	524.26612998	45.51306670	0.76547442	0	-0.61455298	1.99936625	9.65391469	-2.15161170	0.19348529	0	-0.06572220	0	-1.53987638	0	0	0.02344284	-0.00000000
35.62000000	47.79167104	514.56429680	43.86789522	0.76208405	0	-0.61455005	7.79721532	30.10514084	-3.83208824	0.51358618	0	-0.18103879	0	-1.49192793	0	0	0.12815399	-0.00000000
35.63000000	48.79034143	502.88848841	41.94222248	0.75862682	0	-0.61454166	10.40614793	67.13005033	-5.39250486	0.85841153	0	-0.31098810	0	-1.48782456	0	0	0.30257698	0
35.64000000	49.70117576	488.69487973	39.78880308	0.75490946	0	-0.61447599	3.31673656	120.33766930	-6.49478114	1.06485341	0	-0.39310754	0	-1.51071470	0	0	0.51586322	0.00000000
35.65000000	50.42995270	471.30774314	37.47107311	0.75110516	0	-0.61426346	-12.50614582	183.60981591	-6.59910982	1.14126460	0	-0.42505308	0	-1.52617203	0	0	0.70757465	0
35.66000000	50.87861683	450.21157367	34.80032530	0.74730835	0	-0.61387010	-31.21883101	246.14259312	-6.05513028	1.14988460	0	-0.42911136	0	-1.50506941	0	0	0.66570156	-0.00000000
35.67000000	51.06360359	424.90345197	31.33072589	0.74330523	0	-0.61329361	-47.99026763	296.96513146	-5.27186256	1.13593159	0	-0.42390752	0	-1.39172163	0	0	0.28740183	-0.00000000
35.68000000	50.87265940	394.73564922	26.75724478	0.73888487	0	-0.61244241	-59.35689846	329.86313956	-4.89812292	1.12068450	0	-0.41845639	0	-1.10720397	0	0	-0.19138739	0.00000000
35.69000000	49.97965977	358.99055504	21.21276090	0.73419387	0	-0.61135480	-65.88698350	347.96533524	-6.95190785	1.10978828	0	-0.41504933	0	-0.74624541	0	0	-0.41182381	-0.00000000
35.70000000	47.83845206	317.50317450	15.16456999	0.73004961	0	-0.61046353	-70.15273135	361.29099690	-12.67846873	1.10265667	0	-0.41324245	0	-0.42716599	0	0	-0.44908772	0.00000000
35.71000000	44.00317536	270.96206419	9.17374430	0.72746337	0	-0.61075594	-73.57864670	378.01555652	-20.91934584	1.09732915	0	-0.41221174	0	-0.23919382	0	0	-0.48546802	0
35.72000000	38.19005150	221.14868888	3.97021775	0.72740230	0	-0.61352379	-76.50910173	400.48664401	-29.83632160	1.09244938	0	-0.41143915	0	-0.31289033	0	0	-0.54860763	0
35.73000000	30.40949204	171.18750399	0.33926478	0.72949889	0	-0.61875540	-78.72319162	427.12713448	-38.14081471	1.08727688	0	-0.41067303	0	-0.77770755	0	0	-0.66133419	-0.00000000
35.74000000	20.97571626	125.25271101	-1.31160479	0.72980647	0	-0.62165584	-79.93543587	454.97563754	-45.09767377	1.08132395	0	-0.40984277	0	-1.61815385	0	0	-0.82820049	0
35.75000000	10.94860921	87.07446067	-1.51868067	0.71681438	0	-0.60855430	-79.77843016	481.66174104	-50.56486401	1.07438862	0	-0.40902823	0	-2.55823676	0	0	-1.01489785	0.00000000
35.76000000	2.00830200	58.48779541	-1.44071473	0.66694996	0	-0.55731522	-78.10058030	505.74549124	-54.40876026	1.06660193	0	-0.40840941	0	-3.08251129	0	0	-1.25239541	0
35.77000000	-4.39965487	38.80074647	-1.73065271	0.55588164	0	-0.45076529	-75.21658184	526.06885326	-56.09469249	1.05842564	0	-0.40807186	0	-2.93577976	0	0	-1.49723373	0
35.78000000	-7.62124303	25.36650280	-2.40830612	0.39536943	0	-0.30757360	-71.52110224	541.84418136	-55.39839536	1.05035976	0	-0.40797987	0	-2.28062355	0	0	-1.67444788	-0.00000000
